<svg width="400" height="400" viewBox="0 0 400 400" fill="none" xmlns="http://www.w3.org/2000/svg">
  <path d="M14.6543 235.379C-4.88478 215.84 -4.88478 184.16 14.6543 164.621L164.621 14.6543C184.16 -4.88478 215.84 -4.88478 235.379 14.6543L385.346 164.621C404.885 184.16 404.885 215.84 385.346 235.379L235.379 385.346C215.84 404.885 184.16 404.885 164.621 385.346L14.6543 235.379Z" fill="#BF303E" />
  <path d="M211.797 240.203H188.312L186.484 93.25H213.766L211.797 240.203ZM185.5 284.922C185.5 280.703 186.766 277.188 189.297 274.375C191.922 271.469 195.766 270.016 200.828 270.016C205.891 270.016 209.734 271.469 212.359 274.375C214.984 277.188 216.297 280.703 216.297 284.922C216.297 289.141 214.984 292.656 212.359 295.469C209.734 298.188 205.891 299.547 200.828 299.547C195.766 299.547 191.922 298.188 189.297 295.469C186.766 292.656 185.5 289.141 185.5 284.922Z" fill="white" />
</svg>
