<svg width="400" height="400" viewBox="0 0 400 400" fill="none" xmlns="http://www.w3.org/2000/svg">
  <circle cx="200" cy="200" r="200" fill="#2364D2" />
  <path d="M212.953 298H186.938V145.844H212.953V298ZM184.828 105.484C184.828 101.266 186.094 97.7031 188.625 94.7969C191.25 91.8906 195.094 90.4375 200.156 90.4375C205.219 90.4375 209.062 91.8906 211.688 94.7969C214.312 97.7031 215.625 101.266 215.625 105.484C215.625 109.703 214.312 113.219 211.688 116.031C209.062 118.844 205.219 120.25 200.156 120.25C195.094 120.25 191.25 118.844 188.625 116.031C186.094 113.219 184.828 109.703 184.828 105.484Z" fill="#FDFDFD" />
</svg>
